<svg width="1406" height="1368" viewBox="0 0 1406 1368" fill="none" xmlns="http://www.w3.org/2000/svg">
<path fill-rule="evenodd" clip-rule="evenodd" d="M496.481 459C496.826 452.206 497 445.371 497 438.5C497 196.323 280.753 0 14 0H497H1406V909V1347.5C1406 1105.32 1189.75 909 923 909H967C707.426 909 497 698.574 497 439V459H496.481ZM923 909C918.317 909 913.65 909.06 909 909.181V909H923ZM1406 1347.5V1368H1405.48C1405.83 1361.21 1406 1354.37 1406 1347.5ZM14 0C9.31738 0 4.65039 0.0604935 0 0.180668V0H14Z" fill="#E51616"/>
</svg>
